<mxfile host="Electron" modified="2024-02-14T14:24:29.318Z" agent="Mozilla/5.0 (Windows NT 10.0; Win64; x64) AppleWebKit/537.36 (KHTML, like Gecko) draw.io/23.0.2 Chrome/120.0.6099.109 Electron/28.1.0 Safari/537.36" etag="p2pl7o5UlQ9vdiy6UWOr" version="23.0.2" type="device" pages="3">
  <diagram id="C5RBs43oDa-KdzZeNtuy" name="Page-1">
    <mxGraphModel dx="2309" dy="329" grid="1" gridSize="8" guides="1" tooltips="1" connect="1" arrows="1" fold="1" page="0" pageScale="1" pageWidth="827" pageHeight="1169" math="0" shadow="0">
      <root>
        <mxCell id="WIyWlLk6GJQsqaUBKTNV-0" />
        <mxCell id="WIyWlLk6GJQsqaUBKTNV-1" parent="WIyWlLk6GJQsqaUBKTNV-0" />
        <mxCell id="1CuiGo-4ievI_6vSBxj6-1" value="" style="ellipse;html=1;shape=startState;fillColor=#000000;strokeColor=#ffffff;strokeWidth=2;" parent="WIyWlLk6GJQsqaUBKTNV-1" vertex="1">
          <mxGeometry x="292" y="1056" width="56" height="55" as="geometry" />
        </mxCell>
        <mxCell id="1CuiGo-4ievI_6vSBxj6-2" value="" style="endArrow=classic;html=1;rounded=0;exitX=0.5;exitY=1;exitDx=0;exitDy=0;strokeWidth=2;exitPerimeter=0;" parent="WIyWlLk6GJQsqaUBKTNV-1" source="1CuiGo-4ievI_6vSBxj6-10" edge="1">
          <mxGeometry width="50" height="50" relative="1" as="geometry">
            <mxPoint x="319.86" y="1192" as="sourcePoint" />
            <mxPoint x="319.86" y="1248" as="targetPoint" />
          </mxGeometry>
        </mxCell>
        <mxCell id="1CuiGo-4ievI_6vSBxj6-3" value="" style="endArrow=classic;html=1;rounded=0;entryX=0.5;entryY=0;entryDx=0;entryDy=0;exitX=0.5;exitY=1;exitDx=0;exitDy=0;exitPerimeter=0;strokeWidth=2;" parent="WIyWlLk6GJQsqaUBKTNV-1" source="1CuiGo-4ievI_6vSBxj6-8" target="1CuiGo-4ievI_6vSBxj6-4" edge="1">
          <mxGeometry width="50" height="50" relative="1" as="geometry">
            <mxPoint x="342" y="1352" as="sourcePoint" />
            <mxPoint x="318" y="1392" as="targetPoint" />
          </mxGeometry>
        </mxCell>
        <mxCell id="1CuiGo-4ievI_6vSBxj6-4" value="&lt;b&gt;Check&lt;/b&gt;" style="rhombus;whiteSpace=wrap;html=1;strokeWidth=2;" parent="WIyWlLk6GJQsqaUBKTNV-1" vertex="1">
          <mxGeometry x="278" y="1336" width="84" height="84" as="geometry" />
        </mxCell>
        <mxCell id="1CuiGo-4ievI_6vSBxj6-5" value="&lt;b&gt;Invalid&lt;/b&gt;" style="text;html=1;strokeColor=none;fillColor=none;align=center;verticalAlign=middle;whiteSpace=wrap;rounded=0;strokeWidth=2;" parent="WIyWlLk6GJQsqaUBKTNV-1" vertex="1">
          <mxGeometry x="350" y="1344" width="60" height="30" as="geometry" />
        </mxCell>
        <mxCell id="1CuiGo-4ievI_6vSBxj6-6" value="&lt;b&gt;Valid&lt;/b&gt;" style="text;html=1;strokeColor=none;fillColor=none;align=center;verticalAlign=middle;whiteSpace=wrap;rounded=0;strokeWidth=2;" parent="WIyWlLk6GJQsqaUBKTNV-1" vertex="1">
          <mxGeometry x="336" y="1400" width="60" height="30" as="geometry" />
        </mxCell>
        <mxCell id="1CuiGo-4ievI_6vSBxj6-8" value="&lt;b style=&quot;border-color: var(--border-color);&quot;&gt;Authentication&lt;/b&gt;" style="strokeWidth=2;html=1;shape=mxgraph.flowchart.terminator;whiteSpace=wrap;" parent="WIyWlLk6GJQsqaUBKTNV-1" vertex="1">
          <mxGeometry x="264" y="1248" width="112" height="32" as="geometry" />
        </mxCell>
        <mxCell id="1CuiGo-4ievI_6vSBxj6-9" value="" style="edgeStyle=orthogonalEdgeStyle;rounded=0;orthogonalLoop=1;jettySize=auto;html=1;exitX=0.482;exitY=0.882;exitDx=0;exitDy=0;entryX=0.5;entryY=0;entryDx=0;entryDy=0;strokeWidth=2;exitPerimeter=0;entryPerimeter=0;" parent="WIyWlLk6GJQsqaUBKTNV-1" source="1CuiGo-4ievI_6vSBxj6-1" target="1CuiGo-4ievI_6vSBxj6-10" edge="1">
          <mxGeometry relative="1" as="geometry">
            <mxPoint x="316" y="1200" as="targetPoint" />
            <mxPoint x="316" y="1112" as="sourcePoint" />
            <Array as="points">
              <mxPoint x="320" y="1105" />
            </Array>
          </mxGeometry>
        </mxCell>
        <mxCell id="1CuiGo-4ievI_6vSBxj6-10" value="Login" style="strokeWidth=2;html=1;shape=mxgraph.flowchart.terminator;whiteSpace=wrap;" parent="WIyWlLk6GJQsqaUBKTNV-1" vertex="1">
          <mxGeometry x="278" y="1154" width="84" height="28" as="geometry" />
        </mxCell>
        <mxCell id="1CuiGo-4ievI_6vSBxj6-11" value="" style="endArrow=none;html=1;rounded=0;strokeWidth=2;entryX=1;entryY=0.5;entryDx=0;entryDy=0;exitX=1;exitY=0.5;exitDx=0;exitDy=0;exitPerimeter=0;" parent="WIyWlLk6GJQsqaUBKTNV-1" source="1CuiGo-4ievI_6vSBxj6-10" target="1CuiGo-4ievI_6vSBxj6-4" edge="1">
          <mxGeometry width="50" height="50" relative="1" as="geometry">
            <mxPoint x="432" y="1168" as="sourcePoint" />
            <mxPoint x="438" y="1376" as="targetPoint" />
            <Array as="points">
              <mxPoint x="432" y="1168" />
              <mxPoint x="432" y="1378" />
            </Array>
          </mxGeometry>
        </mxCell>
        <mxCell id="1CuiGo-4ievI_6vSBxj6-12" value="Start" style="text;html=1;align=center;verticalAlign=middle;resizable=0;points=[];autosize=1;strokeColor=none;fillColor=none;fontStyle=1;fontSize=15;strokeWidth=2;" parent="WIyWlLk6GJQsqaUBKTNV-1" vertex="1">
          <mxGeometry x="336" y="1080" width="52" height="30" as="geometry" />
        </mxCell>
        <mxCell id="1CuiGo-4ievI_6vSBxj6-13" value="" style="endArrow=none;html=1;rounded=0;strokeWidth=5;" parent="WIyWlLk6GJQsqaUBKTNV-1" edge="1">
          <mxGeometry width="50" height="50" relative="1" as="geometry">
            <mxPoint x="-32" y="1580" as="sourcePoint" />
            <mxPoint x="1184" y="1580" as="targetPoint" />
          </mxGeometry>
        </mxCell>
        <mxCell id="1CuiGo-4ievI_6vSBxj6-14" value="" style="endArrow=classic;html=1;rounded=0;exitX=0.5;exitY=1;exitDx=0;exitDy=0;strokeWidth=2;exitPerimeter=0;" parent="WIyWlLk6GJQsqaUBKTNV-1" edge="1">
          <mxGeometry width="50" height="50" relative="1" as="geometry">
            <mxPoint x="319.47" y="1420" as="sourcePoint" />
            <mxPoint x="319.33000000000004" y="1486" as="targetPoint" />
          </mxGeometry>
        </mxCell>
        <mxCell id="1CuiGo-4ievI_6vSBxj6-15" value="&lt;b style=&quot;border-color: var(--border-color);&quot;&gt;DashBoard&lt;/b&gt;" style="strokeWidth=2;html=1;shape=mxgraph.flowchart.terminator;whiteSpace=wrap;" parent="WIyWlLk6GJQsqaUBKTNV-1" vertex="1">
          <mxGeometry x="264" y="1488" width="112" height="32" as="geometry" />
        </mxCell>
        <mxCell id="1CuiGo-4ievI_6vSBxj6-16" value="" style="endArrow=classic;html=1;rounded=0;exitX=0.5;exitY=1;exitDx=0;exitDy=0;strokeWidth=2;exitPerimeter=0;" parent="WIyWlLk6GJQsqaUBKTNV-1" edge="1">
          <mxGeometry width="50" height="50" relative="1" as="geometry">
            <mxPoint x="319.47" y="1520" as="sourcePoint" />
            <mxPoint x="320" y="1576" as="targetPoint" />
          </mxGeometry>
        </mxCell>
        <mxCell id="1CuiGo-4ievI_6vSBxj6-17" value="&lt;b&gt;Add Product&lt;/b&gt;" style="strokeWidth=2;html=1;shape=mxgraph.flowchart.terminator;whiteSpace=wrap;" parent="WIyWlLk6GJQsqaUBKTNV-1" vertex="1">
          <mxGeometry x="56" y="1610" width="112" height="40" as="geometry" />
        </mxCell>
        <mxCell id="1CuiGo-4ievI_6vSBxj6-18" value="" style="endArrow=classic;html=1;rounded=0;entryX=0.5;entryY=0;entryDx=0;entryDy=0;entryPerimeter=0;strokeWidth=2;" parent="WIyWlLk6GJQsqaUBKTNV-1" edge="1">
          <mxGeometry width="50" height="50" relative="1" as="geometry">
            <mxPoint x="112" y="1581" as="sourcePoint" />
            <mxPoint x="112" y="1609" as="targetPoint" />
          </mxGeometry>
        </mxCell>
        <mxCell id="1CuiGo-4ievI_6vSBxj6-19" value="" style="endArrow=classic;html=1;rounded=0;strokeWidth=2;exitX=0.482;exitY=0.998;exitDx=0;exitDy=0;exitPerimeter=0;" parent="WIyWlLk6GJQsqaUBKTNV-1" edge="1">
          <mxGeometry width="50" height="50" relative="1" as="geometry">
            <mxPoint x="109.98399999999992" y="1648.92" as="sourcePoint" />
            <mxPoint x="110" y="1681" as="targetPoint" />
          </mxGeometry>
        </mxCell>
        <mxCell id="1CuiGo-4ievI_6vSBxj6-20" value="" style="endArrow=none;html=1;rounded=0;strokeWidth=5;" parent="WIyWlLk6GJQsqaUBKTNV-1" edge="1">
          <mxGeometry width="50" height="50" relative="1" as="geometry">
            <mxPoint x="-32" y="1684" as="sourcePoint" />
            <mxPoint x="1184" y="1680" as="targetPoint" />
          </mxGeometry>
        </mxCell>
        <mxCell id="1CuiGo-4ievI_6vSBxj6-21" value="&lt;b&gt;Add Image&lt;/b&gt;" style="strokeWidth=2;html=1;shape=mxgraph.flowchart.terminator;whiteSpace=wrap;" parent="WIyWlLk6GJQsqaUBKTNV-1" vertex="1">
          <mxGeometry x="-72" y="1713" width="112" height="40" as="geometry" />
        </mxCell>
        <mxCell id="1CuiGo-4ievI_6vSBxj6-22" value="" style="endArrow=classic;html=1;rounded=0;entryX=0.5;entryY=0;entryDx=0;entryDy=0;entryPerimeter=0;strokeWidth=2;" parent="WIyWlLk6GJQsqaUBKTNV-1" edge="1">
          <mxGeometry width="50" height="50" relative="1" as="geometry">
            <mxPoint x="-16.08" y="1685" as="sourcePoint" />
            <mxPoint x="-16.079999999999885" y="1713" as="targetPoint" />
          </mxGeometry>
        </mxCell>
        <mxCell id="1CuiGo-4ievI_6vSBxj6-23" value="" style="endArrow=classic;html=1;rounded=0;strokeWidth=2;exitX=0.499;exitY=1.019;exitDx=0;exitDy=0;exitPerimeter=0;" parent="WIyWlLk6GJQsqaUBKTNV-1" source="1CuiGo-4ievI_6vSBxj6-21" edge="1">
          <mxGeometry width="50" height="50" relative="1" as="geometry">
            <mxPoint x="-16" y="1755" as="sourcePoint" />
            <mxPoint x="-16" y="1794" as="targetPoint" />
          </mxGeometry>
        </mxCell>
        <mxCell id="1CuiGo-4ievI_6vSBxj6-24" value="&lt;b&gt;Add Title&lt;/b&gt;" style="strokeWidth=2;html=1;shape=mxgraph.flowchart.terminator;whiteSpace=wrap;" parent="WIyWlLk6GJQsqaUBKTNV-1" vertex="1">
          <mxGeometry x="48" y="1713" width="112" height="40" as="geometry" />
        </mxCell>
        <mxCell id="1CuiGo-4ievI_6vSBxj6-25" value="" style="endArrow=classic;html=1;rounded=0;entryX=0.5;entryY=0;entryDx=0;entryDy=0;entryPerimeter=0;strokeWidth=2;" parent="WIyWlLk6GJQsqaUBKTNV-1" edge="1">
          <mxGeometry width="50" height="50" relative="1" as="geometry">
            <mxPoint x="104" y="1686" as="sourcePoint" />
            <mxPoint x="104" y="1712" as="targetPoint" />
          </mxGeometry>
        </mxCell>
        <mxCell id="1CuiGo-4ievI_6vSBxj6-26" value="" style="endArrow=classic;html=1;rounded=0;strokeWidth=2;exitX=0.5;exitY=1;exitDx=0;exitDy=0;exitPerimeter=0;" parent="WIyWlLk6GJQsqaUBKTNV-1" edge="1">
          <mxGeometry width="50" height="50" relative="1" as="geometry">
            <mxPoint x="104" y="1754" as="sourcePoint" />
            <mxPoint x="104" y="1793" as="targetPoint" />
          </mxGeometry>
        </mxCell>
        <mxCell id="1CuiGo-4ievI_6vSBxj6-27" value="&lt;b&gt;Add Price&lt;/b&gt;" style="strokeWidth=2;html=1;shape=mxgraph.flowchart.terminator;whiteSpace=wrap;" parent="WIyWlLk6GJQsqaUBKTNV-1" vertex="1">
          <mxGeometry x="172" y="1713" width="100" height="40" as="geometry" />
        </mxCell>
        <mxCell id="1CuiGo-4ievI_6vSBxj6-28" value="" style="endArrow=classic;html=1;rounded=0;entryX=0.5;entryY=0;entryDx=0;entryDy=0;entryPerimeter=0;strokeWidth=2;" parent="WIyWlLk6GJQsqaUBKTNV-1" edge="1">
          <mxGeometry width="50" height="50" relative="1" as="geometry">
            <mxPoint x="222" y="1684" as="sourcePoint" />
            <mxPoint x="222" y="1712" as="targetPoint" />
          </mxGeometry>
        </mxCell>
        <mxCell id="1CuiGo-4ievI_6vSBxj6-29" value="" style="endArrow=classic;html=1;rounded=0;strokeWidth=2;exitX=0.5;exitY=1;exitDx=0;exitDy=0;exitPerimeter=0;" parent="WIyWlLk6GJQsqaUBKTNV-1" source="1CuiGo-4ievI_6vSBxj6-27" edge="1">
          <mxGeometry width="50" height="50" relative="1" as="geometry">
            <mxPoint x="322" y="1855" as="sourcePoint" />
            <mxPoint x="222" y="1792" as="targetPoint" />
          </mxGeometry>
        </mxCell>
        <mxCell id="1CuiGo-4ievI_6vSBxj6-30" value="&lt;b&gt;Add Quantity&lt;/b&gt;" style="strokeWidth=2;html=1;shape=mxgraph.flowchart.terminator;whiteSpace=wrap;" parent="WIyWlLk6GJQsqaUBKTNV-1" vertex="1">
          <mxGeometry x="288" y="1713" width="104" height="40" as="geometry" />
        </mxCell>
        <mxCell id="1CuiGo-4ievI_6vSBxj6-31" value="" style="endArrow=classic;html=1;rounded=0;entryX=0.5;entryY=0;entryDx=0;entryDy=0;entryPerimeter=0;strokeWidth=2;" parent="WIyWlLk6GJQsqaUBKTNV-1" edge="1">
          <mxGeometry width="50" height="50" relative="1" as="geometry">
            <mxPoint x="340" y="1685" as="sourcePoint" />
            <mxPoint x="340" y="1712" as="targetPoint" />
          </mxGeometry>
        </mxCell>
        <mxCell id="1CuiGo-4ievI_6vSBxj6-32" value="" style="endArrow=classic;html=1;rounded=0;strokeWidth=2;exitX=0.5;exitY=1;exitDx=0;exitDy=0;exitPerimeter=0;" parent="WIyWlLk6GJQsqaUBKTNV-1" edge="1">
          <mxGeometry width="50" height="50" relative="1" as="geometry">
            <mxPoint x="340" y="1753" as="sourcePoint" />
            <mxPoint x="340" y="1792" as="targetPoint" />
          </mxGeometry>
        </mxCell>
        <mxCell id="1CuiGo-4ievI_6vSBxj6-39" value="&lt;b&gt;Add Category&lt;/b&gt;" style="strokeWidth=2;html=1;shape=mxgraph.flowchart.terminator;whiteSpace=wrap;" parent="WIyWlLk6GJQsqaUBKTNV-1" vertex="1">
          <mxGeometry x="400" y="1713" width="104" height="40" as="geometry" />
        </mxCell>
        <mxCell id="1CuiGo-4ievI_6vSBxj6-40" value="" style="endArrow=classic;html=1;rounded=0;entryX=0.5;entryY=0;entryDx=0;entryDy=0;entryPerimeter=0;strokeWidth=2;" parent="WIyWlLk6GJQsqaUBKTNV-1" edge="1">
          <mxGeometry width="50" height="50" relative="1" as="geometry">
            <mxPoint x="452" y="1680" as="sourcePoint" />
            <mxPoint x="451.9999999999998" y="1712" as="targetPoint" />
          </mxGeometry>
        </mxCell>
        <mxCell id="1CuiGo-4ievI_6vSBxj6-41" value="" style="endArrow=classic;html=1;rounded=0;strokeWidth=2;" parent="WIyWlLk6GJQsqaUBKTNV-1" edge="1">
          <mxGeometry width="50" height="50" relative="1" as="geometry">
            <mxPoint x="452" y="1752" as="sourcePoint" />
            <mxPoint x="452" y="1791" as="targetPoint" />
          </mxGeometry>
        </mxCell>
        <mxCell id="1CuiGo-4ievI_6vSBxj6-48" value="&lt;b&gt;Add Description&lt;/b&gt;" style="strokeWidth=2;html=1;shape=mxgraph.flowchart.terminator;whiteSpace=wrap;" parent="WIyWlLk6GJQsqaUBKTNV-1" vertex="1">
          <mxGeometry x="520" y="1713" width="112" height="40" as="geometry" />
        </mxCell>
        <mxCell id="1CuiGo-4ievI_6vSBxj6-49" value="" style="endArrow=classic;html=1;rounded=0;entryX=0.5;entryY=0;entryDx=0;entryDy=0;entryPerimeter=0;strokeWidth=2;" parent="WIyWlLk6GJQsqaUBKTNV-1" edge="1">
          <mxGeometry width="50" height="50" relative="1" as="geometry">
            <mxPoint x="575.47" y="1684" as="sourcePoint" />
            <mxPoint x="575.47" y="1712" as="targetPoint" />
          </mxGeometry>
        </mxCell>
        <mxCell id="1CuiGo-4ievI_6vSBxj6-50" value="" style="endArrow=classic;html=1;rounded=0;strokeWidth=2;exitX=0.5;exitY=1;exitDx=0;exitDy=0;exitPerimeter=0;" parent="WIyWlLk6GJQsqaUBKTNV-1" source="1CuiGo-4ievI_6vSBxj6-48" edge="1">
          <mxGeometry width="50" height="50" relative="1" as="geometry">
            <mxPoint x="576" y="1757" as="sourcePoint" />
            <mxPoint x="576" y="1790" as="targetPoint" />
          </mxGeometry>
        </mxCell>
        <mxCell id="1CuiGo-4ievI_6vSBxj6-57" value="&lt;b&gt;View Product&lt;/b&gt;" style="strokeWidth=2;html=1;shape=mxgraph.flowchart.terminator;whiteSpace=wrap;" parent="WIyWlLk6GJQsqaUBKTNV-1" vertex="1">
          <mxGeometry x="648" y="1609" width="112" height="40" as="geometry" />
        </mxCell>
        <mxCell id="1CuiGo-4ievI_6vSBxj6-58" value="" style="endArrow=classic;html=1;rounded=0;entryX=0.5;entryY=0;entryDx=0;entryDy=0;entryPerimeter=0;strokeWidth=2;" parent="WIyWlLk6GJQsqaUBKTNV-1" target="1CuiGo-4ievI_6vSBxj6-57" edge="1">
          <mxGeometry width="50" height="50" relative="1" as="geometry">
            <mxPoint x="704" y="1581" as="sourcePoint" />
            <mxPoint x="994" y="1586" as="targetPoint" />
          </mxGeometry>
        </mxCell>
        <mxCell id="1CuiGo-4ievI_6vSBxj6-59" value="" style="endArrow=classic;html=1;rounded=0;strokeWidth=2;exitX=0.5;exitY=1;exitDx=0;exitDy=0;exitPerimeter=0;" parent="WIyWlLk6GJQsqaUBKTNV-1" edge="1">
          <mxGeometry width="50" height="50" relative="1" as="geometry">
            <mxPoint x="702" y="1649" as="sourcePoint" />
            <mxPoint x="702" y="1679" as="targetPoint" />
          </mxGeometry>
        </mxCell>
        <mxCell id="1CuiGo-4ievI_6vSBxj6-65" value="&lt;b&gt;View Product&lt;/b&gt;" style="strokeWidth=2;html=1;shape=mxgraph.flowchart.terminator;whiteSpace=wrap;" parent="WIyWlLk6GJQsqaUBKTNV-1" vertex="1">
          <mxGeometry x="648" y="1713" width="112" height="40" as="geometry" />
        </mxCell>
        <mxCell id="1CuiGo-4ievI_6vSBxj6-66" value="" style="endArrow=classic;html=1;rounded=0;strokeWidth=2;" parent="WIyWlLk6GJQsqaUBKTNV-1" edge="1">
          <mxGeometry width="50" height="50" relative="1" as="geometry">
            <mxPoint x="704" y="1680" as="sourcePoint" />
            <mxPoint x="704" y="1713" as="targetPoint" />
          </mxGeometry>
        </mxCell>
        <mxCell id="1CuiGo-4ievI_6vSBxj6-67" value="" style="endArrow=classic;html=1;rounded=0;strokeWidth=2;exitX=0.5;exitY=1;exitDx=0;exitDy=0;exitPerimeter=0;" parent="WIyWlLk6GJQsqaUBKTNV-1" edge="1">
          <mxGeometry width="50" height="50" relative="1" as="geometry">
            <mxPoint x="704" y="1751" as="sourcePoint" />
            <mxPoint x="704" y="1790" as="targetPoint" />
          </mxGeometry>
        </mxCell>
        <mxCell id="1CuiGo-4ievI_6vSBxj6-71" value="&lt;b&gt;Update Product&lt;/b&gt;" style="strokeWidth=2;html=1;shape=mxgraph.flowchart.terminator;whiteSpace=wrap;" parent="WIyWlLk6GJQsqaUBKTNV-1" vertex="1">
          <mxGeometry x="768" y="1713" width="112" height="40" as="geometry" />
        </mxCell>
        <mxCell id="1CuiGo-4ievI_6vSBxj6-72" value="" style="endArrow=classic;html=1;rounded=0;entryX=0.5;entryY=0;entryDx=0;entryDy=0;entryPerimeter=0;strokeWidth=2;" parent="WIyWlLk6GJQsqaUBKTNV-1" target="1CuiGo-4ievI_6vSBxj6-71" edge="1">
          <mxGeometry width="50" height="50" relative="1" as="geometry">
            <mxPoint x="824" y="1680" as="sourcePoint" />
            <mxPoint x="823.47" y="1713" as="targetPoint" />
          </mxGeometry>
        </mxCell>
        <mxCell id="1CuiGo-4ievI_6vSBxj6-73" value="" style="endArrow=classic;html=1;rounded=0;strokeWidth=2;exitX=0.5;exitY=1;exitDx=0;exitDy=0;exitPerimeter=0;" parent="WIyWlLk6GJQsqaUBKTNV-1" source="1CuiGo-4ievI_6vSBxj6-71" edge="1">
          <mxGeometry width="50" height="50" relative="1" as="geometry">
            <mxPoint x="823.9" y="1756" as="sourcePoint" />
            <mxPoint x="823.9" y="1789" as="targetPoint" />
          </mxGeometry>
        </mxCell>
        <mxCell id="1CuiGo-4ievI_6vSBxj6-74" value="&lt;b&gt;Search Product&lt;/b&gt;" style="strokeWidth=2;html=1;shape=mxgraph.flowchart.terminator;whiteSpace=wrap;" parent="WIyWlLk6GJQsqaUBKTNV-1" vertex="1">
          <mxGeometry x="888" y="1713" width="112" height="40" as="geometry" />
        </mxCell>
        <mxCell id="1CuiGo-4ievI_6vSBxj6-75" value="" style="endArrow=classic;html=1;rounded=0;strokeWidth=2;" parent="WIyWlLk6GJQsqaUBKTNV-1" edge="1">
          <mxGeometry width="50" height="50" relative="1" as="geometry">
            <mxPoint x="944" y="1680" as="sourcePoint" />
            <mxPoint x="944" y="1712" as="targetPoint" />
          </mxGeometry>
        </mxCell>
        <mxCell id="1CuiGo-4ievI_6vSBxj6-76" value="" style="endArrow=classic;html=1;rounded=0;strokeWidth=2;exitX=0.5;exitY=1;exitDx=0;exitDy=0;exitPerimeter=0;" parent="WIyWlLk6GJQsqaUBKTNV-1" source="1CuiGo-4ievI_6vSBxj6-74" edge="1">
          <mxGeometry width="50" height="50" relative="1" as="geometry">
            <mxPoint x="944" y="1756" as="sourcePoint" />
            <mxPoint x="944" y="1790" as="targetPoint" />
          </mxGeometry>
        </mxCell>
        <mxCell id="1CuiGo-4ievI_6vSBxj6-88" value="&lt;b&gt;View Order&lt;/b&gt;" style="strokeWidth=2;html=1;shape=mxgraph.flowchart.terminator;whiteSpace=wrap;" parent="WIyWlLk6GJQsqaUBKTNV-1" vertex="1">
          <mxGeometry x="1024" y="1608" width="112" height="40" as="geometry" />
        </mxCell>
        <mxCell id="1CuiGo-4ievI_6vSBxj6-89" value="" style="endArrow=classic;html=1;rounded=0;entryX=0.5;entryY=0;entryDx=0;entryDy=0;entryPerimeter=0;strokeWidth=2;" parent="WIyWlLk6GJQsqaUBKTNV-1" target="1CuiGo-4ievI_6vSBxj6-88" edge="1">
          <mxGeometry width="50" height="50" relative="1" as="geometry">
            <mxPoint x="1080" y="1580" as="sourcePoint" />
            <mxPoint x="1370" y="1585" as="targetPoint" />
          </mxGeometry>
        </mxCell>
        <mxCell id="1CuiGo-4ievI_6vSBxj6-90" value="" style="endArrow=classic;html=1;rounded=0;strokeWidth=2;exitX=0.5;exitY=1;exitDx=0;exitDy=0;exitPerimeter=0;" parent="WIyWlLk6GJQsqaUBKTNV-1" edge="1">
          <mxGeometry width="50" height="50" relative="1" as="geometry">
            <mxPoint x="1078" y="1648" as="sourcePoint" />
            <mxPoint x="1078" y="1678" as="targetPoint" />
          </mxGeometry>
        </mxCell>
        <mxCell id="1CuiGo-4ievI_6vSBxj6-91" value="" style="endArrow=none;html=1;rounded=0;strokeWidth=5;" parent="WIyWlLk6GJQsqaUBKTNV-1" edge="1">
          <mxGeometry width="50" height="50" relative="1" as="geometry">
            <mxPoint x="-80" y="1796" as="sourcePoint" />
            <mxPoint x="616" y="1792" as="targetPoint" />
          </mxGeometry>
        </mxCell>
        <mxCell id="1CuiGo-4ievI_6vSBxj6-92" value="" style="endArrow=none;html=1;rounded=0;strokeWidth=5;" parent="WIyWlLk6GJQsqaUBKTNV-1" edge="1">
          <mxGeometry width="50" height="50" relative="1" as="geometry">
            <mxPoint x="632" y="1792" as="sourcePoint" />
            <mxPoint x="1008" y="1792" as="targetPoint" />
          </mxGeometry>
        </mxCell>
        <mxCell id="1CuiGo-4ievI_6vSBxj6-93" value="" style="endArrow=classic;html=1;rounded=0;strokeWidth=2;exitX=0.5;exitY=1;exitDx=0;exitDy=0;exitPerimeter=0;" parent="WIyWlLk6GJQsqaUBKTNV-1" edge="1">
          <mxGeometry width="50" height="50" relative="1" as="geometry">
            <mxPoint x="256" y="1793" as="sourcePoint" />
            <mxPoint x="256" y="1833" as="targetPoint" />
          </mxGeometry>
        </mxCell>
        <mxCell id="1CuiGo-4ievI_6vSBxj6-94" value="" style="endArrow=classic;html=1;rounded=0;strokeWidth=2;" parent="WIyWlLk6GJQsqaUBKTNV-1" edge="1">
          <mxGeometry width="50" height="50" relative="1" as="geometry">
            <mxPoint x="768" y="1792" as="sourcePoint" />
            <mxPoint x="768" y="1831" as="targetPoint" />
          </mxGeometry>
        </mxCell>
        <mxCell id="1CuiGo-4ievI_6vSBxj6-95" value="" style="endArrow=none;html=1;rounded=0;strokeWidth=5;" parent="WIyWlLk6GJQsqaUBKTNV-1" edge="1">
          <mxGeometry width="50" height="50" relative="1" as="geometry">
            <mxPoint x="-64" y="1836" as="sourcePoint" />
            <mxPoint x="1152" y="1832" as="targetPoint" />
          </mxGeometry>
        </mxCell>
        <mxCell id="1CuiGo-4ievI_6vSBxj6-96" value="" style="endArrow=classic;html=1;rounded=0;strokeWidth=2;" parent="WIyWlLk6GJQsqaUBKTNV-1" edge="1">
          <mxGeometry width="50" height="50" relative="1" as="geometry">
            <mxPoint x="1072" y="1680" as="sourcePoint" />
            <mxPoint x="1072" y="1830" as="targetPoint" />
          </mxGeometry>
        </mxCell>
        <mxCell id="1CuiGo-4ievI_6vSBxj6-97" value="" style="endArrow=classic;html=1;rounded=0;strokeWidth=2;exitX=0.5;exitY=1;exitDx=0;exitDy=0;exitPerimeter=0;" parent="WIyWlLk6GJQsqaUBKTNV-1" edge="1">
          <mxGeometry width="50" height="50" relative="1" as="geometry">
            <mxPoint x="616" y="1832" as="sourcePoint" />
            <mxPoint x="616" y="1904" as="targetPoint" />
          </mxGeometry>
        </mxCell>
        <mxCell id="2oUpFefisx_GNWAaQa10-1" value="" style="endArrow=none;html=1;rounded=0;strokeWidth=5;" parent="WIyWlLk6GJQsqaUBKTNV-1" edge="1">
          <mxGeometry width="50" height="50" relative="1" as="geometry">
            <mxPoint x="24" y="1836" as="sourcePoint" />
            <mxPoint x="1240" y="1832" as="targetPoint" />
          </mxGeometry>
        </mxCell>
        <mxCell id="2oUpFefisx_GNWAaQa10-2" value="Log Out" style="strokeWidth=2;html=1;shape=mxgraph.flowchart.terminator;whiteSpace=wrap;" parent="WIyWlLk6GJQsqaUBKTNV-1" vertex="1">
          <mxGeometry x="573" y="1904" width="84" height="28" as="geometry" />
        </mxCell>
        <mxCell id="2oUpFefisx_GNWAaQa10-3" value="" style="ellipse;html=1;shape=startState;fillColor=#000000;strokeColor=#ffffff;strokeWidth=2;" parent="WIyWlLk6GJQsqaUBKTNV-1" vertex="1">
          <mxGeometry x="588" y="1992" width="56" height="55" as="geometry" />
        </mxCell>
        <mxCell id="2oUpFefisx_GNWAaQa10-4" value="End" style="text;html=1;align=center;verticalAlign=middle;resizable=0;points=[];autosize=1;strokeColor=none;fillColor=none;fontStyle=1;fontSize=15;strokeWidth=2;" parent="WIyWlLk6GJQsqaUBKTNV-1" vertex="1">
          <mxGeometry x="632" y="1992" width="48" height="40" as="geometry" />
        </mxCell>
        <mxCell id="2oUpFefisx_GNWAaQa10-5" value="" style="endArrow=classic;html=1;rounded=0;strokeWidth=2;exitX=0.5;exitY=1;exitDx=0;exitDy=0;exitPerimeter=0;" parent="WIyWlLk6GJQsqaUBKTNV-1" source="2oUpFefisx_GNWAaQa10-2" edge="1">
          <mxGeometry width="50" height="50" relative="1" as="geometry">
            <mxPoint x="614.76" y="1936" as="sourcePoint" />
            <mxPoint x="615" y="1996" as="targetPoint" />
          </mxGeometry>
        </mxCell>
      </root>
    </mxGraphModel>
  </diagram>
  <diagram id="iyI0qKm-2Jd1Mq1HLbiY" name="Page-2">
    <mxGraphModel dx="1050" dy="621" grid="1" gridSize="10" guides="1" tooltips="1" connect="1" arrows="1" fold="1" page="1" pageScale="1" pageWidth="850" pageHeight="1100" math="0" shadow="0">
      <root>
        <mxCell id="0" />
        <mxCell id="1" parent="0" />
      </root>
    </mxGraphModel>
  </diagram>
  <diagram id="5fgBsKeb1dE9-aGb-aIY" name="Page-3">
    <mxGraphModel dx="1050" dy="621" grid="1" gridSize="10" guides="1" tooltips="1" connect="1" arrows="1" fold="1" page="1" pageScale="1" pageWidth="850" pageHeight="1100" math="0" shadow="0">
      <root>
        <mxCell id="0" />
        <mxCell id="1" parent="0" />
      </root>
    </mxGraphModel>
  </diagram>
</mxfile>
